<!-- public/logos/react.svg -->
<svg width="100%" height="100%" viewBox="0 0 841.9 595.3" xmlns="http://www.w3.org/2000/svg">
  <g fill="#61DAFB">
    <circle cx="420.9" cy="296.5" r="45.7"/>
    <path d="M520.5 78.1c-66.2 0-124.8 26.7-169.5 70.4C306.3 104.8 247.7 78.1 181.5 78.1c-88.4 0-160 71.6-160 160s71.6 160 160 160c66.2 0 124.8-26.7 169.5-70.4 44.7 43.7 103.3 70.4 169.5 70.4 88.4 0 160-71.6 160-160s-71.6-160-160-160zM420.9 468.1c-56.1 0-110.2-18.5-154.2-52.5 3.2-2.8 6.3-5.7 9.4-8.8 40.2-40.2 90.8-69.7 145.2-84.2-1.4-11.1-2.1-22.4-2.1-33.9 0-11.5.7-22.8 2.1-33.9-54.3-14.5-104.9-44-145.2-84.2-3.1-3.1-6.2-6-9.4-8.8C310.7 145.7 364.8 127.2 420.9 127.2s110.2 18.5 154.2 52.5c-3.2 2.8-6.3 5.7-9.4 8.8-40.2 40.2-90.8 69.7-145.2 84.2 1.4 11.1 2.1 22.4 2.1 33.9 0 11.5-.7 22.8-2.1 33.9 54.3 14.5 104.9 44 145.2 84.2 3.1 3.1 6.2 6 9.4 8.8-44 34-98.1 52.5-154.2 52.5z"/>
  </g>
</svg>
